<svg xmlns="http://www.w3.org/2000/svg" width="1691.11" height="602.702" viewBox="0 0 1691.11 602.702">
  <defs>
    <style>
      .cls-1 {
        fill: #f3f0f3;
      }
    </style>
  </defs>
  <path id="Logo_NIKE" class="cls-1" d="M322.042,963.832q-75.582-3-123.848-41.4c-6.152-4.892-20.811-19.56-25.729-25.746-13.071-16.436-21.958-32.433-27.886-50.181-18.24-54.633-8.853-126.324,26.851-205,30.569-67.36,77.739-134.167,160.034-226.7,12.123-13.615,48.223-53.434,48.455-53.434.086,0-1.881,3.408-4.357,7.558-21.4,35.841-39.707,78.058-49.68,114.607-16.022,58.646-14.09,108.973,5.66,148,13.624,26.885,36.98,50.173,63.244,63.046,45.979,22.528,113.3,24.392,195.5,5.453,5.66-1.311,286.126-75.763,623.259-165.453s613.017-163.028,613.062-162.968c.095.078-783.26,335.28-1189.911,509.178-64.4,27.532-81.622,34.486-111.9,45.116-77.394,27.179-146.721,40.146-202.761,37.921Z" transform="translate(-135.499 -361.375)"/>
</svg>
