<svg xmlns="http://www.w3.org/2000/svg" width="26" height="26" viewBox="0 0 26 26">
  <defs>
    <style>
      .cls-1 {
        fill: #fff;
      }
    </style>
  </defs>
  <path id="search-icon" class="cls-1" d="M25.682,24.188,21.214,19.82h0l-.1-.159a1.053,1.053,0,0,0-1.478,0h0A10.546,10.546,0,0,1,5.957,20.1,9.983,9.983,0,0,1,3.738,6.9a10.5,10.5,0,0,1,13.1-3.858,10.064,10.064,0,0,1,5.608,12.2,1.013,1.013,0,0,0,.236,1,1.068,1.068,0,0,0,1.007.3,1.043,1.043,0,0,0,.77-.7h0a12.134,12.134,0,0,0-6.5-14.625A12.68,12.68,0,0,0,2.2,5.311,12.033,12.033,0,0,0,3.964,21.163a12.726,12.726,0,0,0,16.3.67L24.216,25.7a1.064,1.064,0,0,0,1.478,0,1.019,1.019,0,0,0,0-1.456h0Z"/>
</svg>
